/* XPM */
static char *softtoken32[] = {

/* columns rows colors chars-per-pixel */
"16 16 17 2",

/* color table */
".. c None",
"aa c #000000",
"bb c #800000",
"cc c #008000",
"dd c #808000",
"ee c #000080",
"ff c #800080",
"gg c #008080",
"hh c #c0c0c0",
"ii c #808080",
"jj c #ff0000",
"kk c #00ff00",
"ll c #ffff00",
"mm c #0000ff",
"nn c #ff00ff",
"oo c #00ffff",
"pp c #ffffff",

/* pixels */
"................................",
"................................",
"................................",
"......aaaaaaaaaaaaaaaaaaaa......",
"....aaiiiiiiiiiiiiiiiiiiiiaa....",
"..aaiiiiiiiiiiiiiiiiiiiiiiiiaa..",
"aaiiiiiiiiaaaaaaaaaaaaaaiiiiiiaa",
"aaiijjbbiiaappppppppppaaiiaaiiaa",
"aaiibbbbiiaappppppppppaaiiaaiiaa",
"aaiiiiiiiiaaaaaaaaaaaaaaiiiiiiaa",
"..aaiiiiiiiiiiiiiiiiiiiiiiiiaa..",
"....aaiiiiiiiiiiiiiiiiiiiiaa....",
"......aaaaaaaaaaaaaaaaaaaa......",
"................................",
"................................",
"................................"};
